<svg width="22" height="18" viewBox="0 0 22 18" fill="none" xmlns="http://www.w3.org/2000/svg">
<path fill-rule="evenodd" clip-rule="evenodd" d="M3.66656 1.59774V0.731632C3.66656 0.327107 3.25682 0.00012207 2.74992 0.00012207C2.24302 0.00012207 1.83328 0.327107 1.83328 0.731632V1.59774C0.769061 1.90059 0 2.70525 0 3.65767V5.8522C0 6.80463 0.769061 7.60856 1.83328 7.91141V16.8249C1.83328 17.2287 2.24302 17.5564 2.74992 17.5564C3.25682 17.5564 3.66656 17.2287 3.66656 16.8249V7.91141C4.73078 7.60856 5.49984 6.80463 5.49984 5.8522V3.65767C5.49984 2.70525 4.73078 1.90059 3.66656 1.59774Z" fill="#D1D1D1"/>
<path fill-rule="evenodd" clip-rule="evenodd" d="M11.917 3.79219V0.731548C11.917 0.327023 11.5072 3.75509e-05 11.0003 3.75509e-05C10.4934 3.75509e-05 10.0837 0.327023 10.0837 0.731548V3.79219C9.01949 4.09503 8.25043 4.89969 8.25043 5.85212V8.04665C8.25043 8.99908 9.01949 9.80301 10.0837 10.1059V16.8248C10.0837 17.2286 10.4934 17.5563 11.0003 17.5563C11.5072 17.5563 11.917 17.2286 11.917 16.8248V10.1059C12.9812 9.80301 13.7503 8.99908 13.7503 8.04665V5.85212C13.7503 4.89969 12.9812 4.09503 11.917 3.79219Z" fill="#D1D1D1"/>
<path fill-rule="evenodd" clip-rule="evenodd" d="M20.1667 9.64427V0.731548C20.1667 0.327023 19.757 3.75509e-05 19.2501 3.75509e-05C18.7432 3.75509e-05 18.3335 0.327023 18.3335 0.731548V9.64427C17.2692 9.94712 16.5002 10.7518 16.5002 11.7042V13.8987C16.5002 14.8512 17.2692 15.6551 18.3335 15.9579V16.8248C18.3335 17.2286 18.7432 17.5563 19.2501 17.5563C19.757 17.5563 20.1667 17.2286 20.1667 16.8248V15.9579C21.231 15.6551 22 14.8512 22 13.8987V11.7042C22 10.7518 21.231 9.94712 20.1667 9.64427Z" fill="#D1D1D1"/>
</svg>
