<svg width="24" height="27" viewBox="0 0 24 27" fill="none" xmlns="http://www.w3.org/2000/svg">
<path d="M23.2302 1.97944H12.7285V0.742329C12.7285 0.329958 12.3986 6.10352e-05 11.9863 6.10352e-05C11.5739 6.10352e-05 11.244 0.329958 11.244 0.742329V1.97944H0.742268C0.329897 1.97944 0 2.30934 0 2.72171V17.842C0 18.2544 0.329897 18.5843 0.742268 18.5843H8.60481L5.71821 25.0722C5.55327 25.4296 5.71821 25.8695 6.10309 26.0344C6.46048 26.1994 6.90034 26.0344 7.06529 25.6496L10.1993 18.5568H13.8007L16.9347 25.6496C17.0447 25.9245 17.3196 26.0894 17.622 26.0894C17.732 26.0894 17.8144 26.0619 17.9244 26.0344C18.2818 25.8695 18.4742 25.4296 18.3093 25.0722L15.3952 18.5568H23.2577C23.6701 18.5568 24 18.2269 24 17.8145V2.69422C23.9725 2.30934 23.6426 1.97944 23.2302 1.97944ZM22.5155 17.0997H1.45704V3.43649H22.488V17.0997H22.5155Z" fill="#D1D1D1"/>
<path d="M19.6564 8.08253C19.4364 6.73545 18.2818 5.69078 16.8522 5.69078C16.5224 5.69078 16.2199 5.74576 15.9175 5.85573L17.0997 8.08253H19.6564Z" fill="#D1D1D1"/>
<path d="M16.8797 11.3541C18.2818 11.3541 19.4639 10.3095 19.6838 8.96238H16.8797C16.7148 8.96238 16.5498 8.8799 16.4948 8.71496L15.1752 6.26822C14.488 6.79056 14.0481 7.58781 14.0481 8.52252C14.0481 10.0895 15.3127 11.3541 16.8797 11.3541Z" fill="#D1D1D1"/>
<path d="M4.78351 11.574C4.92097 11.574 5.05843 11.4915 5.16839 11.3816L6.87286 9.07228L8.30241 10.1444C8.41238 10.2269 8.52235 10.2544 8.6598 10.2269C8.76977 10.1994 8.87973 10.1444 8.96221 10.0345L10.6667 7.7252L11.134 8.08259C11.244 8.16507 11.3815 8.16507 11.4914 8.11008C11.6014 8.0551 11.6839 7.94514 11.6839 7.80768L11.7663 5.93826C11.7663 5.8283 11.7113 5.71833 11.6289 5.66335C11.5464 5.60837 11.4089 5.58087 11.3265 5.60836L9.51204 6.24067C9.40207 6.29565 9.29211 6.37812 9.29211 6.51558C9.26461 6.65304 9.3196 6.763 9.42956 6.84548L9.89692 7.20287L8.46736 9.12727L7.03781 8.0551C6.92784 7.97263 6.81788 7.94514 6.70791 7.97263C6.59795 8.00012 6.48798 8.0551 6.40551 8.16507L4.39863 10.8592C4.23368 11.0517 4.28867 11.3541 4.48111 11.519C4.56358 11.5465 4.67355 11.574 4.78351 11.574Z" fill="#D1D1D1"/>
<path d="M4.61853 14.9279H5.91063C6.07558 14.9279 6.24053 14.7904 6.24053 14.598V12.811C6.24053 12.6461 6.10307 12.4811 5.91063 12.4811H4.61853C4.45358 12.4811 4.28864 12.6186 4.28864 12.811V14.598C4.31613 14.7629 4.45358 14.9279 4.61853 14.9279Z" fill="#D1D1D1"/>
<path d="M8.76976 11.2166H7.47766C7.31271 11.2166 7.14777 11.3541 7.14777 11.5465V14.6256C7.14777 14.7905 7.28522 14.9554 7.47766 14.9554H8.76976C8.93471 14.9554 9.09966 14.818 9.09966 14.6256V11.519C9.09966 11.3541 8.9622 11.2166 8.76976 11.2166Z" fill="#D1D1D1"/>
<path d="M10.3643 9.92436C10.1993 9.92436 10.0344 10.0618 10.0344 10.2543V14.5979C10.0344 14.7629 10.1718 14.9278 10.3643 14.9278H11.6564C11.8213 14.9278 11.9863 14.7903 11.9863 14.5979V10.2543C11.9863 10.0893 11.8488 9.92436 11.6564 9.92436H10.3643Z" fill="#D1D1D1"/>
<path d="M14.3505 14.9277H19.354C19.5189 14.9277 19.6839 14.7902 19.6839 14.5978V13.3057C19.6839 13.1407 19.5464 12.9758 19.354 12.9758H14.3505C14.1856 12.9758 14.0206 13.1132 14.0206 13.3057V14.5978C14.0481 14.7627 14.1856 14.9277 14.3505 14.9277Z" fill="#D1D1D1"/>
</svg>
