<svg width="23" height="24" viewBox="0 0 23 24" fill="none" xmlns="http://www.w3.org/2000/svg">
<path d="M21.6715 10.8238C21.8959 10.9983 22.0766 11.2228 22.1992 11.4794C22.3218 11.736 22.3828 12.0176 22.3776 12.3019V12.889C22.3776 13.5851 22.3776 14.2836 22.3776 14.9796C22.3798 15.3063 22.295 15.6276 22.1317 15.9106C21.9684 16.1935 21.7327 16.4278 21.4487 16.5893C20.9813 16.8803 20.4472 17.0467 19.8973 17.0727H19.7631C19.4446 17.0765 19.1324 16.9841 18.8674 16.8075C18.6023 16.631 18.3967 16.3785 18.2774 16.0831C18.1391 15.7623 18.0585 15.4196 18.0395 15.0707V15.0556L18.0927 11.7653C18.1262 11.4278 18.2572 11.1073 18.4698 10.843C18.6824 10.5788 18.9673 10.3821 19.2898 10.2771C19.2767 9.11395 18.997 7.9693 18.4723 6.93115C17.1689 4.3774 15.0986 2.8816 12.317 2.46399C10.2334 2.1545 8.11149 2.67503 6.40762 3.91365C4.70375 5.15227 3.55398 7.01005 3.20553 9.08753C3.15318 9.43375 3.12191 9.78282 3.11189 10.1328C3.11189 10.1834 3.11189 10.2341 3.11189 10.2822C3.38135 10.3667 3.62523 10.5177 3.82115 10.7211C4.01706 10.9245 4.15871 11.1739 4.23311 11.4464C4.3144 11.7105 4.35619 11.9851 4.35712 12.2614C4.35712 13.2409 4.35712 14.1343 4.35712 14.9872C4.35113 15.2789 4.30166 15.5681 4.21033 15.8452C4.10256 16.196 3.88854 16.5046 3.59783 16.7285C3.6942 17.8778 4.21838 18.949 5.06668 19.7302C5.91499 20.5115 7.02562 20.946 8.17888 20.9477H8.77872C8.88279 20.7643 9.03372 20.6119 9.21606 20.506C9.3984 20.4002 9.60559 20.3447 9.81642 20.3453H12.1069C12.4238 20.3453 12.7276 20.4711 12.9517 20.6952C13.1757 20.9192 13.3016 21.2231 13.3016 21.5399V22.8054C13.3016 23.1222 13.1757 23.4261 12.9517 23.6501C12.7276 23.8741 12.4238 24 12.1069 24H9.81642C9.60451 23.9986 9.39682 23.9406 9.21483 23.832C9.03283 23.7235 8.88315 23.5683 8.78125 23.3824H8.18142C6.38745 23.3795 4.66247 22.6909 3.3596 21.4577C2.05674 20.2245 1.27455 18.5399 1.17316 16.7488C1.04753 16.6854 0.92732 16.6117 0.813767 16.5286C0.574134 16.3695 0.376192 16.1552 0.236579 15.9037C0.0969652 15.6522 0.0197593 15.3709 0.0114504 15.0834C-0.00373542 14.1647 -0.00373542 13.1953 0.0114504 12.2006C0.0148331 11.9309 0.079747 11.6656 0.201244 11.4248C0.32274 11.184 0.497612 10.9741 0.712529 10.8111C0.615194 8.08234 1.59732 5.42516 3.44597 3.41563C4.89319 1.76084 6.85393 0.639655 9.0141 0.231676C13.0637 -0.5428 16.4931 0.626507 19.1911 3.70923C20.9046 5.67832 21.7423 8.07262 21.6715 10.8238ZM15.3441 13.1016C15.2475 13.456 15.1055 13.7963 14.9214 14.114L15.3997 14.7949C15.4848 14.9163 15.5243 15.0638 15.5113 15.2115C15.4983 15.3591 15.4337 15.4975 15.3289 15.6022L14.8379 16.0933C14.7331 16.1981 14.5947 16.2627 14.4471 16.2757C14.2994 16.2887 14.1519 16.2491 14.0305 16.1641L13.3421 15.6984C13.0244 15.8826 12.684 16.0247 12.3297 16.1211L12.1854 16.9411C12.1598 17.0871 12.0836 17.2193 11.9702 17.3147C11.8568 17.41 11.7135 17.4624 11.5653 17.4625H10.8617C10.7136 17.4624 10.5702 17.41 10.4568 17.3147C10.3434 17.2193 10.2672 17.0871 10.2416 16.9411L10.0974 16.1211C9.74302 16.0246 9.40271 15.8825 9.08497 15.6984L8.40667 16.1768C8.28525 16.2618 8.13774 16.3013 7.99008 16.2883C7.84242 16.2754 7.70405 16.2108 7.59929 16.1059L7.10828 15.6149C7.00341 15.5101 6.93881 15.3718 6.92585 15.2241C6.91289 15.0765 6.95239 14.9289 7.03742 14.8075L7.51577 14.1267C7.33178 13.8089 7.18971 13.4686 7.0931 13.1143L6.27307 12.97C6.12713 12.9445 5.99488 12.8683 5.89954 12.7549C5.80419 12.6415 5.75184 12.4981 5.75169 12.35V11.6463C5.75184 11.4982 5.80419 11.3548 5.89954 11.2414C5.99488 11.128 6.12713 11.0518 6.27307 11.0263L7.0931 10.882C7.18971 10.5277 7.33178 10.1874 7.51577 9.8696L7.03742 9.18877C6.95239 9.06735 6.91289 8.91984 6.92585 8.77218C6.93881 8.62452 7.00341 8.48615 7.10828 8.38139L7.59929 7.89039C7.70278 7.78396 7.84051 7.71748 7.98821 7.70266C8.13592 7.68785 8.28411 7.72565 8.40667 7.80939L9.0875 8.28775C9.40528 8.10371 9.74558 7.96163 10.0999 7.86508L10.2442 7.04504C10.2697 6.89911 10.3459 6.76686 10.4593 6.67151C10.5727 6.57616 10.7161 6.52382 10.8642 6.52366H11.5603C11.7084 6.52382 11.8518 6.57616 11.9652 6.67151C12.0786 6.76686 12.1548 6.89911 12.1803 7.04504L12.3246 7.86508C12.679 7.96152 13.0193 8.1036 13.337 8.28775L14.0178 7.80939C14.1392 7.72437 14.2868 7.68486 14.4344 7.69783C14.5821 7.71079 14.7205 7.77538 14.8252 7.88026L15.3162 8.37127C15.4211 8.47602 15.4857 8.61439 15.4987 8.76206C15.5116 8.90972 15.4721 9.05723 15.3871 9.17865L14.9087 9.85948C15.0928 10.1772 15.2349 10.5175 15.3314 10.8719L16.1514 11.0161C16.2974 11.0417 16.4296 11.1179 16.525 11.2313C16.6203 11.3447 16.6727 11.4881 16.6728 11.6362V12.3322C16.6727 12.4804 16.6203 12.6238 16.525 12.7372C16.4296 12.8506 16.2974 12.9267 16.1514 12.9523L15.3441 13.1016ZM13.0991 11.9931C13.0991 11.6192 12.9882 11.2536 12.7805 10.9427C12.5727 10.6318 12.2774 10.3895 11.932 10.2464C11.5865 10.1033 11.2064 10.0658 10.8396 10.1388C10.4729 10.2117 10.136 10.3918 9.87157 10.6562C9.60716 10.9206 9.4271 11.2575 9.35415 11.6242C9.2812 11.991 9.31864 12.3711 9.46174 12.7166C9.60483 13.0621 9.84716 13.3573 10.1581 13.5651C10.469 13.7728 10.8345 13.8837 11.2085 13.8837C11.7099 13.8837 12.1908 13.6845 12.5453 13.33C12.8999 12.9754 13.0991 12.4945 13.0991 11.9931Z" fill="#D1D1D1"/>
</svg>
