<svg width="25" height="24" viewBox="0 0 25 24" fill="none" xmlns="http://www.w3.org/2000/svg">
<path d="M9.81989 13.1705C9.81989 14.4647 10.8689 15.512 12.1614 15.512C13.4539 15.512 14.5028 14.4647 14.5028 13.1705C14.5028 11.8768 13.4539 10.829 12.1614 10.829C10.8689 10.829 9.81989 11.8768 9.81989 13.1705Z" fill="#D1D1D1"/>
<path d="M12.1614 9.95126L16.2589 5.85368H13.9175V0H10.4053V5.85368H8.06378L12.1614 9.95126Z" fill="#D1D1D1"/>
<path d="M19.4826 15.266L20.8064 13.3348L15.1099 14.3979L16.1735 20.0944L17.497 18.1632L22.3254 21.4726L24.311 18.5756L19.4826 15.266Z" fill="#D1D1D1"/>
<path d="M12.1614 23.1219C9.47217 23.1219 7.03031 22.0478 5.23762 20.3087L4.4942 20.8179C6.45431 22.7836 9.16573 24 12.1614 24C15.1549 24 17.864 22.7857 19.8244 20.8229L19.0807 20.3134C17.288 22.0498 14.8482 23.1219 12.1614 23.1219Z" fill="#D1D1D1"/>
<path d="M22.1126 13.1709C22.1126 14.0692 21.9909 14.939 21.7667 15.7673L22.532 16.2918C22.8291 15.3034 22.9907 14.2562 22.9907 13.1709C22.9907 8.0987 19.5034 3.84249 14.7955 2.6656V3.57585C19.0078 4.73429 22.1126 8.59567 22.1126 13.1709Z" fill="#D1D1D1"/>
<path d="M2.55376 15.7609C2.33102 14.9343 2.21014 14.0668 2.21014 13.1709C2.21014 8.59565 5.31464 4.73427 9.52724 3.57612V2.66617C4.81972 3.84276 1.33209 8.09897 1.33209 13.1712C1.33209 14.2541 1.49307 15.2993 1.78897 16.2856L2.55376 15.7609Z" fill="#D1D1D1"/>
<path d="M8.13756 20.0944L9.20117 14.3979L3.50466 13.3348L4.82847 15.266L6.10352e-05 18.5756L1.98563 21.4726L6.81404 18.1632L8.13756 20.0944Z" fill="#D1D1D1"/>
</svg>
