<svg width="154" height="48" viewBox="0 0 154 48" fill="none" xmlns="http://www.w3.org/2000/svg">
<path d="M58.5079 30.9656V19.5437H60.3751V29.364H65.211V30.9656H58.5079ZM77.3204 25.239C77.3204 27.0984 76.8542 28.5437 75.9219 29.575C74.9949 30.6062 73.6797 31.1219 71.9766 31.1219C70.2527 31.1219 68.9271 30.6114 68.0001 29.5906C67.0782 28.5646 66.6172 27.1088 66.6172 25.2234C66.6172 23.338 67.0808 21.8901 68.0079 20.8797C68.9402 19.8693 70.2683 19.364 71.9922 19.364C73.6902 19.364 75.0027 19.8771 75.9297 20.9031C76.8568 21.9291 77.3204 23.3745 77.3204 25.239ZM68.6016 25.239C68.6016 26.6453 68.8855 27.713 69.4532 28.4422C70.0209 29.1661 70.862 29.5281 71.9766 29.5281C73.086 29.5281 73.9219 29.1687 74.4844 28.45C75.0521 27.7312 75.336 26.6609 75.336 25.239C75.336 23.838 75.0547 22.7755 74.4922 22.0515C73.935 21.3276 73.1016 20.9656 71.9922 20.9656C70.8725 20.9656 70.0261 21.3276 69.4532 22.0515C68.8855 22.7755 68.6016 23.838 68.6016 25.239ZM84.4454 24.7703H88.6485V30.5047C87.961 30.7286 87.2995 30.8875 86.6641 30.9812C86.0339 31.075 85.3516 31.1219 84.6172 31.1219C82.8881 31.1219 81.5547 30.6114 80.6172 29.5906C79.6797 28.5646 79.211 27.1193 79.211 25.2547C79.211 23.4161 79.7396 21.9786 80.7969 20.9422C81.8542 19.9005 83.31 19.3797 85.1641 19.3797C86.3568 19.3797 87.487 19.6088 88.5547 20.0672L87.8985 21.6219C86.9714 21.1948 86.0443 20.9812 85.1172 20.9812C83.8985 20.9812 82.935 21.364 82.2266 22.1297C81.5183 22.8953 81.1641 23.9422 81.1641 25.2703C81.1641 26.6661 81.4818 27.7286 82.1172 28.4578C82.7579 29.1818 83.6771 29.5437 84.8751 29.5437C85.4792 29.5437 86.1251 29.4682 86.8126 29.3172V26.3719H84.4454V24.7703ZM101.539 25.239C101.539 27.0984 101.073 28.5437 100.141 29.575C99.2136 30.6062 97.8985 31.1219 96.1954 31.1219C94.4714 31.1219 93.1459 30.6114 92.2188 29.5906C91.2969 28.5646 90.836 27.1088 90.836 25.2234C90.836 23.338 91.2995 21.8901 92.2266 20.8797C93.1589 19.8693 94.487 19.364 96.211 19.364C97.9089 19.364 99.2214 19.8771 100.148 20.9031C101.076 21.9291 101.539 23.3745 101.539 25.239ZM92.8204 25.239C92.8204 26.6453 93.1042 27.713 93.6719 28.4422C94.2396 29.1661 95.0808 29.5281 96.1954 29.5281C97.3047 29.5281 98.1407 29.1687 98.7032 28.45C99.2709 27.7312 99.5547 26.6609 99.5547 25.239C99.5547 23.838 99.2735 22.7755 98.711 22.0515C98.1537 21.3276 97.3204 20.9656 96.211 20.9656C95.0912 20.9656 94.2449 21.3276 93.6719 22.0515C93.1042 22.7755 92.8204 23.838 92.8204 25.239ZM117.664 30.9656H115.375L109.758 21.864H109.695L109.734 22.3719C109.807 23.3406 109.844 24.226 109.844 25.0281V30.9656H108.148V19.5437H110.414L116.016 28.5984H116.063C116.052 28.4786 116.031 28.0437 116 27.2937C115.969 26.5385 115.953 25.95 115.953 25.5281V19.5437H117.664V30.9656ZM127.766 30.9656L126.625 27.7937H122.258L121.141 30.9656H119.172L123.445 19.4969H125.477L129.75 30.9656H127.766ZM126.133 26.1844L125.063 23.075C124.984 22.8666 124.875 22.5385 124.734 22.0906C124.599 21.6427 124.505 21.3146 124.453 21.1062C124.313 21.7469 124.107 22.4474 123.836 23.2078L122.805 26.1844H126.133ZM136.195 30.9656L132.883 21.4265H132.82C132.909 22.8432 132.953 24.1713 132.953 25.4109V30.9656H131.258V19.5437H133.891L137.063 28.6297H137.109L140.375 19.5437H143.016V30.9656H141.219V25.3172C141.219 24.7495 141.232 24.0099 141.258 23.0984C141.289 22.187 141.315 21.6349 141.336 21.4422H141.273L137.844 30.9656H136.195ZM152.484 30.9656H146.023V19.5437H152.484V21.1219H147.891V24.2312H152.195V25.7937H147.891V29.3797H152.484V30.9656Z" fill="#00A1E0"/>
<g clip-path="url(#clip0_1:392)">
<path d="M40.676 28.2307L33.4733 9.69824L28.4806 23.495L23.2431 10.1882L16.2867 28.2307C16.2867 28.2307 13.3407 24.313 13.2583 19.189C13.2429 18.2305 13.3581 17.2966 13.5277 16.3877C12.3829 18.6495 11.7233 21.1969 11.7233 23.9038C11.7233 33.1355 19.2256 40.6199 28.4811 40.6199C37.7346 40.6199 45.2379 33.136 45.2379 23.9038C45.2379 21.1969 44.5777 18.6495 43.4341 16.3877C43.6041 17.2966 43.7117 18.2305 43.7035 19.189C43.6635 24.0269 40.676 28.2307 40.676 28.2307ZM28.4806 34.3745C25.0183 34.3745 21.8367 33.2075 19.2804 31.2656L23.2431 18.7604L28.4811 32.8024L33.6367 18.7604L38.0449 30.9943C35.4318 33.1043 32.1063 34.3745 28.4806 34.3745Z" fill="#00A1E0"/>
<path d="M48.0001 24.0443C48.0001 18.1968 45.514 12.9288 41.5569 9.19855C41.6414 9.27264 41.7336 9.33701 41.8166 9.41263C37.521 4.01633 30.8924 0.550781 23.4479 0.550781C10.4981 0.550781 6.10352e-05 11.023 6.10352e-05 23.941C6.10352e-05 36.8585 10.4981 47.3313 23.4479 47.3313C30.541 47.3313 36.8961 44.1846 41.1943 39.2195C45.3603 35.4724 48.0001 30.0669 48.0001 24.0443ZM47.0182 24.0443C47.0182 34.1073 39.3248 42.4117 29.4967 43.4141C29.2253 43.4248 28.96 43.4535 28.6865 43.4535C17.8596 43.4535 9.08502 34.6989 9.08502 23.9002C9.08502 14.6127 15.5809 6.85498 24.2848 4.85934C25.3317 4.68512 26.4022 4.5722 27.4992 4.5722C38.2616 4.57323 47.0182 13.3079 47.0182 24.0443Z" fill="#00A1E0"/>
</g>
<defs>
<clipPath id="clip0_1:392">
<rect width="48" height="47.8821" fill="white"/>
</clipPath>
</defs>
</svg>
