<svg width="22" height="26" viewBox="0 0 22 26" fill="none" xmlns="http://www.w3.org/2000/svg">
<path d="M14.9953 10.1159L15.0621 10.0415C14.9166 9.91068 14.7254 9.8421 14.5297 9.85047C14.3341 9.85883 14.1495 9.94348 14.0156 10.0863L14.0148 10.0872L10.153 14.3158L8.44394 12.5697L8.44393 12.5697C8.30515 12.4279 8.11566 12.347 7.91717 12.3447C7.71868 12.3424 7.52734 12.4188 7.38526 12.5572C7.24317 12.6957 7.16199 12.8848 7.15965 13.083C7.15731 13.2813 7.23401 13.4723 7.3728 13.614L7.3729 13.6141L9.63887 15.9219C9.63896 15.922 9.63904 15.922 9.63913 15.9221C9.70821 15.9937 9.7909 16.0507 9.88235 16.09C9.97392 16.1292 10.0724 16.1498 10.1721 16.1506L10.1728 16.0506L10.1752 16.1505C10.2771 16.1481 10.3774 16.1254 10.4704 16.0837C10.5633 16.042 10.647 15.9822 10.7165 15.9078L10.7172 15.9069L15.1122 11.0922L14.9953 10.1159ZM14.9953 10.1159L15.0623 10.0417C15.1349 10.1072 15.1938 10.1865 15.2356 10.2748C15.2775 10.3632 15.3014 10.4589 15.3061 10.5566C15.3107 10.6542 15.2959 10.7518 15.2627 10.8437C15.2294 10.9356 15.1783 11.0199 15.1123 11.092L14.9953 10.1159ZM21.2263 4.20937L21.2263 4.20934L21.2241 4.20753C21.1438 4.1411 21.0504 4.09219 20.95 4.06394C20.8496 4.03569 20.7444 4.02873 20.6411 4.04348L20.6412 4.04369C20.636 4.04421 20.6296 4.04489 20.6219 4.0457C20.168 4.09365 15.2706 4.61094 11.7806 1.11313L11.7806 1.11311L11.779 1.11156C11.6373 0.975788 11.4485 0.9 11.2521 0.9C11.0558 0.9 10.867 0.975789 10.7253 1.11156L10.7253 1.11155L10.7237 1.11313C8.90628 2.93462 6.70512 3.67005 4.94776 3.94842C4.06936 4.08756 3.30325 4.11226 2.75385 4.10165C2.47922 4.09634 2.25891 4.08222 2.10603 4.06921C2.0296 4.0627 1.97005 4.05648 1.92902 4.05177C1.9085 4.04942 1.89264 4.04746 1.88165 4.04603C1.87228 4.04481 1.86725 4.04409 1.86581 4.04389C1.86544 4.04384 1.86531 4.04382 1.8654 4.04383L1.8654 4.0438L1.8627 4.04342C1.76016 4.02923 1.6558 4.03597 1.55594 4.06321C1.45607 4.09046 1.36278 4.13765 1.28173 4.20195L1.28172 4.20194L1.28052 4.20292C1.19959 4.26918 1.13341 4.35159 1.08623 4.44486C1.03904 4.53814 1.0119 4.64024 1.00655 4.7446L1.00654 4.74472C0.88991 7.07374 0.819439 9.8789 1.06568 12.4972C1.31155 15.1116 1.87451 17.5572 3.03745 19.1543L3.03756 19.1544C4.22858 20.7834 6.0003 22.1909 7.56627 23.2219C9.13101 24.252 10.5026 24.9142 10.9009 25.0474L10.9009 25.0474L10.9036 25.0482C11.1308 25.1173 11.3735 25.1173 11.6007 25.0482L11.6014 25.048C12.0014 24.9232 13.3739 24.2602 14.9381 23.2283C16.5041 22.1951 18.2757 20.7834 19.4667 19.1544L19.467 19.154C20.6191 17.5612 21.1723 15.1155 21.4132 12.5002C21.6545 9.88155 21.5842 7.07496 21.4762 4.74652C21.4743 4.64481 21.4512 4.54461 21.4083 4.4523C21.3653 4.35953 21.3033 4.27678 21.2263 4.20937ZM18.2345 18.2741L18.2345 18.2742C17.2558 19.615 15.7373 20.8574 14.3377 21.8116C12.9703 22.7439 11.7275 23.3937 11.2298 23.5882C10.7331 23.4019 9.49108 22.7537 8.12342 21.8197C6.72395 20.864 5.20541 19.6173 4.22663 18.2742C3.25467 16.9405 2.76096 14.8502 2.53568 12.5298C2.31423 10.2488 2.3535 7.76277 2.44129 5.59101C4.1114 5.66615 8.00795 5.49541 11.2304 2.66543C14.4407 5.49548 18.3494 5.66615 20.0198 5.59101C20.1074 7.76287 20.1404 10.2595 19.9157 12.5459C19.6872 14.8719 19.1934 16.9621 18.2345 18.2741Z" fill="#D1D1D1" stroke="#D1D1D1" stroke-width="0.2"/>
</svg>
