<svg width="21" height="24" viewBox="0 0 21 24" fill="none" xmlns="http://www.w3.org/2000/svg">
<path d="M14.8952 18.9504H5.16655C4.95209 18.9504 4.81561 19.1064 4.81561 19.3014C4.81561 19.5158 4.97158 19.6523 5.16655 19.6523H14.8757C15.0902 19.6523 15.2657 19.4963 15.2657 19.3014C15.2657 19.0869 15.1097 18.9504 14.8952 18.9504Z" fill="#D1D1D1"/>
<path d="M14.3688 11.8538C13.6864 11.6783 12.5751 11.4054 12.1072 11.2689L10.0601 12.6726L8.01297 11.2689C7.54506 11.4054 6.45326 11.6783 5.75139 11.8538C5.40046 11.9513 5.12751 12.2437 5.08852 12.6141C4.97154 13.4915 4.75708 16.026 4.75708 16.026H15.3826C15.3826 16.026 15.1486 13.4915 15.0511 12.6141C14.9927 12.2437 14.7197 11.9513 14.3688 11.8538Z" fill="#D1D1D1"/>
<path d="M7.85701 8.77338C8.07147 9.82618 8.9878 10.5865 10.0601 10.5865C11.1324 10.5865 12.0682 9.82618 12.2632 8.77338L12.6141 6.99921C12.8091 5.57598 11.6978 4.30872 10.2746 4.30872H9.86513C8.4224 4.30872 7.33061 5.57598 7.52557 6.99921L7.85701 8.77338Z" fill="#D1D1D1"/>
<path d="M17.6442 0H2.70999C1.20877 0 0 1.11129 0 2.49553V21.29C0 22.7132 1.28676 24 2.70999 24H17.6442C19.0089 24 20.1397 22.7912 20.1397 21.29V2.47604C20.1397 1.03331 19.0869 0 17.6442 0ZM18.541 21.2705C18.541 21.8164 18.1901 22.4013 17.6442 22.4013H2.70999C2.1446 22.4013 1.5792 21.8359 1.5792 21.2705V2.47604C1.5792 1.91064 2.16409 1.5792 2.70999 1.5792H17.6442C18.2096 1.5792 18.541 1.93014 18.541 2.47604V21.2705Z" fill="#D1D1D1"/>
</svg>
