<svg width="28" height="24" viewBox="0 0 28 24" fill="none" xmlns="http://www.w3.org/2000/svg">
<path d="M13.0347 15.1234C13.362 14.595 13.6073 14.0127 13.7546 13.3913L15.2326 13.3011C15.6178 13.2779 15.932 12.9439 15.932 12.5607V11.4676C15.932 11.0835 15.6178 10.7505 15.2326 10.7272L13.7546 10.637C13.6063 10.0156 13.3611 9.4342 13.0347 8.9049L14.0176 7.79795C14.2721 7.51051 14.2591 7.05284 13.9868 6.78122L13.2119 6.00821C12.9405 5.73659 12.4817 5.72263 12.1927 5.97751L11.083 6.95703C10.5533 6.63146 9.97049 6.38681 9.34758 6.2389L9.25619 4.76451C9.23288 4.38126 8.89904 4.06778 8.51391 4.06778H7.41729C7.03216 4.06778 6.69832 4.38126 6.67408 4.76451L6.58456 6.2389C5.96257 6.38681 5.37882 6.63146 4.84916 6.95703L3.73948 5.97751C3.4504 5.72356 2.99254 5.73659 2.71931 6.00821L1.94533 6.78029C1.67304 7.05191 1.65905 7.50958 1.91456 7.79702L2.89649 8.90397C2.57011 9.43234 2.32486 10.0147 2.17753 10.636L0.69857 10.7263C0.31531 10.7495 0.00105458 11.0835 0.00012207 11.4667V12.5597C0.00012207 12.9439 0.314377 13.2769 0.69857 13.3002L2.17753 13.3904C2.32486 14.0118 2.57105 14.5941 2.89649 15.1225L1.91456 16.2285C1.65999 16.5169 1.67304 16.9736 1.94533 17.2452L2.72025 18.0182C2.99254 18.2899 3.4504 18.3038 3.73948 18.0499L4.84916 17.0703C5.37882 17.3968 5.96257 17.6406 6.58456 17.7885L6.67501 19.2629C6.69832 19.6461 7.03309 19.9596 7.41822 19.9596H8.51391C8.89904 19.9596 9.23288 19.6461 9.25619 19.2629L9.34758 17.7885C9.97049 17.6406 10.5533 17.3968 11.083 17.0703L12.1917 18.0499C12.4808 18.3038 12.9396 18.2899 13.2119 18.0182L13.9859 17.2452C14.2591 16.9736 14.2731 16.5159 14.0176 16.2285L13.0347 15.1234ZM7.96467 15.688C5.93087 15.688 4.2822 14.0434 4.2822 12.0146C4.2822 9.98582 5.9318 8.34119 7.96467 8.34119C9.9994 8.34119 11.6471 9.98675 11.6471 12.0146C11.6481 14.0443 9.9994 15.688 7.96467 15.688Z" fill="#D1D1D1"/>
<path d="M27.5844 17.7698L26.429 17.3847C26.444 16.8601 26.3731 16.3457 26.2267 15.8573L27.2422 15.1866C27.5061 15.0127 27.5928 14.6462 27.4343 14.3727L26.9848 13.595C26.8263 13.3215 26.4654 13.2127 26.1829 13.3541L25.0918 13.8964C24.7412 13.5253 24.33 13.2071 23.8675 12.9578L24.1099 11.7681C24.1724 11.4593 23.9738 11.1393 23.6688 11.0574L22.7979 10.8248C22.4929 10.743 22.16 10.9207 22.0602 11.2202L21.6733 12.3718C21.1483 12.3569 20.6326 12.4276 20.1421 12.5737L19.4697 11.5606C19.2944 11.2974 18.928 11.2109 18.6538 11.3681L17.8742 11.8174C17.5991 11.9755 17.4919 12.3364 17.6318 12.6183L18.1754 13.7057C17.8043 14.0555 17.4854 14.4657 17.2345 14.9271L16.0418 14.6852C15.7323 14.622 15.4105 14.8201 15.3285 15.1252L15.0963 15.9922C15.0142 16.2982 15.1923 16.6285 15.4926 16.7289L16.647 17.115C16.6312 17.6387 16.703 18.1531 16.8494 18.6433L15.8339 19.314C15.57 19.4879 15.4833 19.8545 15.6409 20.1279L16.0913 20.9056C16.2498 21.1791 16.6107 21.287 16.8932 21.1465L17.9833 20.6042C18.3349 20.9754 18.7452 21.2935 19.2086 21.5437L18.9653 22.7325C18.9028 23.0423 19.1014 23.3623 19.4063 23.4442L20.2764 23.6767C20.5822 23.7586 20.9151 23.58 21.0149 23.2814L21.401 22.1298C21.9269 22.1446 22.4426 22.0739 22.9331 21.9279L23.6054 22.9409C23.7807 23.2042 24.1481 23.2897 24.4214 23.1325L25.2019 22.6832C25.4751 22.526 25.5842 22.1651 25.4434 21.8823L24.8997 20.7949C25.2718 20.4451 25.5907 20.0349 25.8406 19.5735L27.0333 19.8154C27.3429 19.8786 27.6646 19.6805 27.7467 19.3754L27.9798 18.5075C28.0628 18.2015 27.8838 17.8703 27.5844 17.7698ZM24.4633 18.0322C24.0297 19.6424 22.3708 20.5986 20.7547 20.167C19.1406 19.7354 18.182 18.0796 18.6146 16.4685C19.0473 14.8573 20.7072 13.902 22.3232 14.3336C23.9374 14.7652 24.896 16.421 24.4633 18.0322Z" fill="#D1D1D1"/>
<path d="M15.1106 7.14952C15.1721 7.38114 15.4164 7.53184 15.6514 7.48347L16.5587 7.30022C16.748 7.65091 16.9905 7.9616 17.273 8.22857L16.8609 9.05367C16.7536 9.26855 16.8366 9.54204 17.0437 9.66203L17.6367 10.0034C17.8456 10.1234 18.1235 10.0583 18.2559 9.85831L18.7669 9.08809C19.139 9.19879 19.5297 9.25274 19.9307 9.24158L20.2235 10.116C20.3 10.343 20.5517 10.4788 20.7839 10.4164L21.4451 10.2397C21.6773 10.1783 21.8274 9.93552 21.7799 9.70017L21.5952 8.796C21.9468 8.60624 22.2592 8.36438 22.5259 8.08253L23.3539 8.49461C23.5693 8.60159 23.8435 8.5188 23.9638 8.31136L24.3051 7.71974C24.4254 7.5123 24.3601 7.2351 24.1596 7.10208L23.3884 6.59232C23.4994 6.22116 23.5535 5.8314 23.5423 5.43234L24.4179 5.14025C24.6455 5.06398 24.7825 4.81189 24.7191 4.58026L24.5429 3.92167C24.4804 3.69005 24.237 3.53935 24.002 3.58679L23.0956 3.77098C22.9054 3.42028 22.6629 3.10959 22.3795 2.84262L22.7926 2.01659C22.8998 1.80264 22.8177 1.52915 22.6089 1.40823L22.0167 1.06684C21.8088 0.947769 21.5299 1.01195 21.3975 1.21195L20.8865 1.98217C20.5144 1.87147 20.1228 1.81752 19.7237 1.82868L19.4299 0.95428C19.3544 0.727307 19.1008 0.591496 18.8695 0.65382L18.2084 0.830562C17.9762 0.891956 17.826 1.13567 17.8736 1.37009L18.0573 2.27426C17.7067 2.46402 17.3943 2.70588 17.1276 2.98773L16.2995 2.57565C16.0841 2.46867 15.8099 2.55146 15.6897 2.7589L15.3484 3.35052C15.2281 3.55796 15.2933 3.83609 15.4938 3.96911L16.265 4.47887C16.154 4.85003 16.1 5.23979 16.1121 5.63885L15.2346 5.93094C15.0071 6.00722 14.8718 6.2593 14.9343 6.49093L15.1106 7.14952ZM19.2322 3.32075C20.4576 2.99238 21.7183 3.71981 22.0475 4.94305C22.3767 6.16628 21.6484 7.42393 20.4221 7.7523C19.1959 8.08067 17.9351 7.35417 17.606 6.13C17.2777 4.90677 18.0051 3.64912 19.2322 3.32075Z" fill="#D1D1D1"/>
<path d="M7.96586 14.0162C9.07416 14.0162 9.97262 13.1199 9.97262 12.0143C9.97262 10.9088 9.07416 10.0125 7.96586 10.0125C6.85756 10.0125 5.95911 10.9088 5.95911 12.0143C5.95911 13.1199 6.85756 14.0162 7.96586 14.0162Z" fill="#D1D1D1"/>
</svg>
