<svg width="24" height="21" viewBox="0 0 24 21" fill="none" xmlns="http://www.w3.org/2000/svg">
<path d="M19.8092 0H0.923077C0.413538 0 0 0.413538 0 0.923077V15.216C0 15.7256 0.413538 16.1391 0.923077 16.1391H14.6437L15.3378 15.2382L13.8831 15.0499V14.4296H1.70954V1.70584H19.0265V8.42217H20.5108L20.6991 9.87692L20.7323 9.85105V0.923077C20.7323 0.413535 20.3188 0 19.8092 0Z" fill="#D1D1D1"/>
<path d="M15.7698 18.1771V20.3925H4.96985V18.1771H6.80861C7.50276 17.5606 7.89415 17.1322 7.93106 16.5082H12.8049C12.8382 17.1322 13.2295 17.5569 13.9274 18.1771H15.7698Z" fill="#D1D1D1"/>
<path d="M24 14.725V12.6093L22.6265 12.4321C22.5785 12.3103 22.5268 12.1884 22.4714 12.0702L23.3206 10.9699L21.8252 9.47451L20.7249 10.3201C20.688 10.3053 20.6585 10.2905 20.6289 10.2795C20.544 10.2388 20.4554 10.2019 20.3631 10.1687L20.1859 8.79149H18.0702L17.8893 10.1687C17.7711 10.213 17.6529 10.261 17.5311 10.3201L16.4271 9.47451L14.9317 10.9699L15.7809 12.0665C15.7219 12.1847 15.6702 12.3103 15.6259 12.4321L14.2523 12.6093V14.725L15.6259 14.9022C15.6702 15.0278 15.7219 15.1496 15.7809 15.2678L14.9317 16.3681L16.4271 17.8598L17.5311 17.0143C17.6529 17.0733 17.7711 17.1213 17.8893 17.1656L18.0702 18.5465H20.1859L20.3631 17.1656C20.4813 17.1213 20.5994 17.0733 20.7212 17.0143L21.8252 17.8598L23.3206 16.3681L22.4751 15.2641C22.5268 15.1496 22.5785 15.0278 22.6265 14.9022L24 14.725ZM19.1262 15.7921C18.8271 15.7921 18.5465 15.7367 18.288 15.6223C17.5274 15.2936 16.9957 14.5478 16.9957 13.6653C16.9957 12.4912 17.952 11.5422 19.1262 11.5422C20.3003 11.5422 21.2566 12.4912 21.2566 13.6653C21.2566 14.8394 20.3003 15.7921 19.1262 15.7921Z" fill="#D1D1D1"/>
<path d="M14.6437 8.89475V6.75689L13.2517 6.57967C13.2074 6.4541 13.1557 6.33227 13.0966 6.21044L13.9569 5.09905L12.4468 3.58886L11.3317 4.44551C11.2098 4.38642 11.088 4.33472 10.9625 4.29041L10.7815 2.89841H8.64738L8.46646 4.29041C8.34461 4.33472 8.22278 4.38641 8.10093 4.4455L6.98584 3.58886L5.4757 5.09905L6.33232 6.21044C6.27323 6.33227 6.22153 6.4541 6.17723 6.58336L4.78894 6.75689V8.89475L6.17723 9.07198C6.22154 9.20115 6.27323 9.32672 6.33232 9.4449L5.4757 10.5563L6.98584 12.0664L8.10093 11.2061C8.22278 11.2652 8.34461 11.3169 8.46646 11.3612L8.64738 12.7569H10.7815L10.9625 11.3612C11.088 11.3169 11.2098 11.2652 11.3317 11.2061L12.4468 12.0664L13.9569 10.5563L13.0966 9.44491C13.1557 9.32303 13.2074 9.20116 13.2517 9.07198L14.6437 8.89475ZM9.71447 9.97658C9.4117 9.97658 9.1274 9.91749 8.86524 9.80305C8.09723 9.47073 7.55817 8.71749 7.55817 7.82393C7.55817 6.63871 8.52923 5.67503 9.71447 5.67503C10.9034 5.67503 11.8708 6.63871 11.8708 7.82393C11.8708 9.01284 10.9034 9.97658 9.71447 9.97658Z" fill="#D1D1D1"/>
</svg>
