<svg width="24" height="22" viewBox="0 0 24 22" fill="none" xmlns="http://www.w3.org/2000/svg">
<path d="M24 14.1194V16.9591H23.9978C23.9661 17.7694 23.291 18.4167 22.4621 18.4167H14.6758C14.6895 18.7574 14.8818 20.3027 17.2211 20.5929H17.1091C17.4786 20.5929 17.778 20.8884 17.778 21.253C17.778 21.6176 17.4786 21.9131 17.1091 21.9131H6.85345C6.48398 21.9131 6.18453 21.6176 6.18453 21.253C6.18453 20.8884 6.48398 20.5929 6.85345 20.5929H6.77832C9.11765 20.3027 9.30992 18.7572 9.32366 18.4167H1.53765C0.708773 18.4167 0.0336613 17.7694 0.00188503 16.9591H0.000807814V16.9267C0.000538523 16.9177 0 16.9087 0 16.8996V16.7731C0 16.7641 0.000538523 16.7551 0.000807814 16.746V14.4426C0.000807814 14.4354 0.000269271 14.4285 0.000269271 14.4213V1.72207C0.000269271 0.772571 0.783097 6.10352e-05 1.74527 6.10352e-05H22.2539C23.2161 6.10352e-05 23.9989 0.772571 23.9989 1.72207V14.12L24 14.1194ZM12.8535 16.7184C12.8535 16.2533 12.4714 15.8763 12.0001 15.8763C11.5289 15.8763 11.1468 16.2533 11.1468 16.7184C11.1468 17.1834 11.5289 17.5605 12.0001 17.5605C12.4714 17.5605 12.8535 17.1837 12.8535 16.7184ZM22.5601 1.72207C22.5601 1.55571 22.4228 1.42018 22.2542 1.42018H1.74554C1.57697 1.42018 1.43963 1.55545 1.43963 1.72207V14.4216C1.43963 14.5879 1.57697 14.7235 1.74554 14.7235H22.2542C22.4228 14.7235 22.5601 14.5882 22.5601 14.4216V1.72207Z" fill="white"/>
</svg>
