<svg width="24" height="20" viewBox="0 0 24 20" fill="none" xmlns="http://www.w3.org/2000/svg">
<path d="M21.5314 2.96249H2.77029L0 6.52821V7.62535C0 8.22878 0.795429 8.72249 1.78286 8.72249C2.60571 8.72249 3.264 8.39335 3.48343 7.95449C3.70286 8.39335 4.38857 8.72249 5.184 8.72249C5.97943 8.72249 6.66514 8.39335 6.88457 7.95449C7.104 8.39335 7.78971 8.72249 8.58514 8.72249C9.408 8.72249 10.0663 8.39335 10.2857 7.95449C10.5051 8.39335 11.1909 8.72249 11.9863 8.72249C12.8091 8.72249 13.4674 8.39335 13.6869 7.95449C13.9063 8.39335 14.592 8.72249 15.3874 8.72249C16.1829 8.72249 16.8686 8.39335 17.088 7.95449C17.3074 8.39335 17.9931 8.72249 18.7886 8.72249C19.6114 8.72249 20.2697 8.39335 20.4891 7.95449C20.7086 8.39335 21.3943 8.72249 22.1897 8.72249C23.1771 8.72249 24 8.22878 24 7.62535V6.52821L21.5314 2.96249Z" fill="#D1D1D1"/>
<path d="M21.5314 1.61829V1.31657C21.5314 0.576 20.928 0 20.2149 0H4.1143C3.37373 0 2.79773 0.603429 2.79773 1.31657V1.61829H21.5314Z" fill="#D1D1D1"/>
<path d="M20.6263 9.65482C20.2972 9.81939 19.9406 9.9291 19.5566 9.98396V14.3177H4.74516V10.0114C4.27887 9.95653 3.86744 9.84682 3.51087 9.65482C3.29144 9.76453 3.04459 9.84682 2.79773 9.90167V18.3222C2.79773 19.0628 3.40116 19.6388 4.1143 19.6388H20.2149C20.9554 19.6388 21.5314 19.0354 21.5314 18.3222V9.95653C21.2023 9.87424 20.9006 9.79196 20.6263 9.65482Z" fill="#D1D1D1"/>
<path d="M6.65716 10.9213L6.51782 13.1112L10.049 13.3359L10.1884 11.146L6.65716 10.9213Z" fill="#D1D1D1"/>
<path d="M6.66516 10.9715C6.63773 10.9715 6.6103 10.9441 6.6103 10.9441C6.58287 10.9167 6.6103 10.8618 6.63773 10.8344L8.47544 9.65498C8.50287 9.62755 8.55773 9.65498 8.58516 9.68241C8.61258 9.70983 8.58516 9.76469 8.55773 9.79212L6.72001 10.9715C6.69258 10.9715 6.66516 10.9715 6.66516 10.9715Z" fill="#D1D1D1"/>
<path d="M10.176 11.1908H10.1486L8.47547 9.79191C8.44804 9.76448 8.44804 9.70962 8.47547 9.68219C8.5029 9.65476 8.55775 9.65476 8.58518 9.68219L10.2583 11.081C10.2858 11.1085 10.2858 11.1633 10.2583 11.1908C10.2309 11.1908 10.2035 11.1908 10.176 11.1908Z" fill="#D1D1D1"/>
</svg>
